<mxfile host="app.diagrams.net" modified="2024-04-12T13:43:08.895Z" agent="Mozilla/5.0 (X11; Linux x86_64) AppleWebKit/537.36 (KHTML, like Gecko) Chrome/120.0.0.0 Safari/537.36" etag="6q5l7K5rwCdCKULcWOU1" version="24.2.3" type="github">
  <diagram name="Page-1" id="2Vxdna3S16cJ2or73cyh">
    <mxGraphModel dx="1384" dy="772" grid="1" gridSize="10" guides="1" tooltips="1" connect="1" arrows="1" fold="1" page="1" pageScale="1" pageWidth="850" pageHeight="1100" math="0" shadow="0">
      <root>
        <mxCell id="0" />
        <mxCell id="1" parent="0" />
        <mxCell id="w_xfcyIcDATjpzYOrhFV-1" value="Загрузка документов с EIS" style="rounded=0;whiteSpace=wrap;html=1;" vertex="1" parent="1">
          <mxGeometry x="10" y="10" width="830" height="60" as="geometry" />
        </mxCell>
        <mxCell id="w_xfcyIcDATjpzYOrhFV-4" value="" style="swimlane;startSize=0;" vertex="1" parent="1">
          <mxGeometry x="10" y="100" width="190" height="130" as="geometry" />
        </mxCell>
        <mxCell id="w_xfcyIcDATjpzYOrhFV-5" value="COMMAND" style="whiteSpace=wrap;html=1;" vertex="1" parent="w_xfcyIcDATjpzYOrhFV-4">
          <mxGeometry x="10" y="20" width="120" height="60" as="geometry" />
        </mxCell>
        <mxCell id="w_xfcyIcDATjpzYOrhFV-24" value="Скрипт загрузки oos_sync_notification_numbers" style="whiteSpace=wrap;html=1;" vertex="1" parent="w_xfcyIcDATjpzYOrhFV-4">
          <mxGeometry x="10" y="90" width="170" height="30" as="geometry" />
        </mxCell>
        <mxCell id="w_xfcyIcDATjpzYOrhFV-7" value="" style="swimlane;startSize=0;" vertex="1" parent="1">
          <mxGeometry x="220" y="100" width="150" height="120" as="geometry" />
        </mxCell>
        <mxCell id="w_xfcyIcDATjpzYOrhFV-9" value="def upload_from_eis()" style="whiteSpace=wrap;html=1;" vertex="1" parent="w_xfcyIcDATjpzYOrhFV-7">
          <mxGeometry x="10" y="20" width="130" height="60" as="geometry" />
        </mxCell>
        <mxCell id="w_xfcyIcDATjpzYOrhFV-15" value="upload_eis_docs()" style="rounded=1;whiteSpace=wrap;html=1;" vertex="1" parent="w_xfcyIcDATjpzYOrhFV-7">
          <mxGeometry x="10" y="87.5" width="110" height="25" as="geometry" />
        </mxCell>
        <mxCell id="w_xfcyIcDATjpzYOrhFV-11" value="" style="swimlane;startSize=0;" vertex="1" parent="1">
          <mxGeometry x="390" y="100" width="140" height="120" as="geometry" />
        </mxCell>
        <mxCell id="w_xfcyIcDATjpzYOrhFV-13" value="upload_eis_docs()" style="whiteSpace=wrap;html=1;" vertex="1" parent="w_xfcyIcDATjpzYOrhFV-11">
          <mxGeometry x="10" y="20" width="120" height="60" as="geometry" />
        </mxCell>
        <mxCell id="w_xfcyIcDATjpzYOrhFV-16" value="upload_docks()" style="rounded=1;whiteSpace=wrap;html=1;" vertex="1" parent="w_xfcyIcDATjpzYOrhFV-11">
          <mxGeometry x="10" y="87.5" width="90" height="22.5" as="geometry" />
        </mxCell>
        <mxCell id="w_xfcyIcDATjpzYOrhFV-18" value="" style="swimlane;startSize=0;" vertex="1" parent="1">
          <mxGeometry x="550" y="100" width="140" height="180" as="geometry" />
        </mxCell>
        <mxCell id="w_xfcyIcDATjpzYOrhFV-19" value="upload_docks()" style="whiteSpace=wrap;html=1;" vertex="1" parent="w_xfcyIcDATjpzYOrhFV-18">
          <mxGeometry x="10" y="20" width="120" height="60" as="geometry" />
        </mxCell>
        <mxCell id="w_xfcyIcDATjpzYOrhFV-21" value="get_docs_urls()" style="rounded=1;whiteSpace=wrap;html=1;" vertex="1" parent="w_xfcyIcDATjpzYOrhFV-18">
          <mxGeometry x="10" y="87.5" width="90" height="22.5" as="geometry" />
        </mxCell>
        <mxCell id="w_xfcyIcDATjpzYOrhFV-22" value="do_request()" style="rounded=1;whiteSpace=wrap;html=1;" vertex="1" parent="w_xfcyIcDATjpzYOrhFV-18">
          <mxGeometry x="10" y="120" width="80" height="20" as="geometry" />
        </mxCell>
        <mxCell id="w_xfcyIcDATjpzYOrhFV-23" value="save_file()" style="rounded=1;whiteSpace=wrap;html=1;" vertex="1" parent="1">
          <mxGeometry x="560" y="250" width="60" height="20" as="geometry" />
        </mxCell>
        <mxCell id="w_xfcyIcDATjpzYOrhFV-25" value="&lt;font color=&quot;#ff0000&quot;&gt;helpers&lt;/font&gt;" style="swimlane;fontStyle=0;childLayout=stackLayout;horizontal=1;startSize=30;horizontalStack=0;resizeParent=1;resizeParentMax=0;resizeLast=0;collapsible=1;marginBottom=0;whiteSpace=wrap;html=1;" vertex="1" parent="1">
          <mxGeometry x="10" y="330" width="150" height="180" as="geometry">
            <mxRectangle x="10" y="330" width="80" height="30" as="alternateBounds" />
          </mxGeometry>
        </mxCell>
        <mxCell id="w_xfcyIcDATjpzYOrhFV-26" value="validate_options" style="text;strokeColor=none;fillColor=none;align=left;verticalAlign=middle;spacingLeft=4;spacingRight=4;overflow=hidden;points=[[0,0.5],[1,0.5]];portConstraint=eastwest;rotatable=0;whiteSpace=wrap;html=1;" vertex="1" parent="w_xfcyIcDATjpzYOrhFV-25">
          <mxGeometry y="30" width="150" height="30" as="geometry" />
        </mxCell>
        <mxCell id="w_xfcyIcDATjpzYOrhFV-27" value="generate_month_info_tag" style="text;strokeColor=none;fillColor=none;align=left;verticalAlign=middle;spacingLeft=4;spacingRight=4;overflow=hidden;points=[[0,0.5],[1,0.5]];portConstraint=eastwest;rotatable=0;whiteSpace=wrap;html=1;" vertex="1" parent="w_xfcyIcDATjpzYOrhFV-25">
          <mxGeometry y="60" width="150" height="30" as="geometry" />
        </mxCell>
        <mxCell id="w_xfcyIcDATjpzYOrhFV-28" value="generate_today_info_tag" style="text;strokeColor=none;fillColor=none;align=left;verticalAlign=middle;spacingLeft=4;spacingRight=4;overflow=hidden;points=[[0,0.5],[1,0.5]];portConstraint=eastwest;rotatable=0;whiteSpace=wrap;html=1;" vertex="1" parent="w_xfcyIcDATjpzYOrhFV-25">
          <mxGeometry y="90" width="150" height="30" as="geometry" />
        </mxCell>
        <mxCell id="w_xfcyIcDATjpzYOrhFV-59" value="generate_exact_date_tag" style="text;strokeColor=none;fillColor=none;align=left;verticalAlign=middle;spacingLeft=4;spacingRight=4;overflow=hidden;points=[[0,0.5],[1,0.5]];portConstraint=eastwest;rotatable=0;whiteSpace=wrap;html=1;" vertex="1" parent="w_xfcyIcDATjpzYOrhFV-25">
          <mxGeometry y="120" width="150" height="30" as="geometry" />
        </mxCell>
        <mxCell id="w_xfcyIcDATjpzYOrhFV-61" value="generate_period_info_tag" style="text;strokeColor=none;fillColor=none;align=left;verticalAlign=middle;spacingLeft=4;spacingRight=4;overflow=hidden;points=[[0,0.5],[1,0.5]];portConstraint=eastwest;rotatable=0;whiteSpace=wrap;html=1;" vertex="1" parent="w_xfcyIcDATjpzYOrhFV-25">
          <mxGeometry y="150" width="150" height="30" as="geometry" />
        </mxCell>
        <mxCell id="w_xfcyIcDATjpzYOrhFV-29" value="main" style="swimlane;fontStyle=0;childLayout=stackLayout;horizontal=1;startSize=30;horizontalStack=0;resizeParent=1;resizeParentMax=0;resizeLast=0;collapsible=1;marginBottom=0;whiteSpace=wrap;html=1;" vertex="1" parent="1">
          <mxGeometry x="180" y="330" width="140" height="90" as="geometry" />
        </mxCell>
        <mxCell id="w_xfcyIcDATjpzYOrhFV-31" value="upload_eis_docs" style="text;strokeColor=none;fillColor=none;align=left;verticalAlign=middle;spacingLeft=4;spacingRight=4;overflow=hidden;points=[[0,0.5],[1,0.5]];portConstraint=eastwest;rotatable=0;whiteSpace=wrap;html=1;" vertex="1" parent="w_xfcyIcDATjpzYOrhFV-29">
          <mxGeometry y="30" width="140" height="30" as="geometry" />
        </mxCell>
        <mxCell id="w_xfcyIcDATjpzYOrhFV-30" value="upload_docks" style="text;strokeColor=none;fillColor=none;align=left;verticalAlign=middle;spacingLeft=4;spacingRight=4;overflow=hidden;points=[[0,0.5],[1,0.5]];portConstraint=eastwest;rotatable=0;whiteSpace=wrap;html=1;" vertex="1" parent="w_xfcyIcDATjpzYOrhFV-29">
          <mxGeometry y="60" width="140" height="30" as="geometry" />
        </mxCell>
        <mxCell id="w_xfcyIcDATjpzYOrhFV-33" value="urls_service" style="swimlane;fontStyle=0;childLayout=stackLayout;horizontal=1;startSize=30;horizontalStack=0;resizeParent=1;resizeParentMax=0;resizeLast=0;collapsible=1;marginBottom=0;whiteSpace=wrap;html=1;" vertex="1" parent="1">
          <mxGeometry x="340" y="330" width="220" height="150" as="geometry" />
        </mxCell>
        <mxCell id="w_xfcyIcDATjpzYOrhFV-34" value="get_docs_urls" style="text;strokeColor=none;fillColor=none;align=left;verticalAlign=middle;spacingLeft=4;spacingRight=4;overflow=hidden;points=[[0,0.5],[1,0.5]];portConstraint=eastwest;rotatable=0;whiteSpace=wrap;html=1;" vertex="1" parent="w_xfcyIcDATjpzYOrhFV-33">
          <mxGeometry y="30" width="220" height="30" as="geometry" />
        </mxCell>
        <mxCell id="w_xfcyIcDATjpzYOrhFV-35" value="&lt;font color=&quot;#ff0000&quot;&gt;get_service_method_request_params&lt;/font&gt;" style="text;strokeColor=none;fillColor=none;align=left;verticalAlign=middle;spacingLeft=4;spacingRight=4;overflow=hidden;points=[[0,0.5],[1,0.5]];portConstraint=eastwest;rotatable=0;whiteSpace=wrap;html=1;" vertex="1" parent="w_xfcyIcDATjpzYOrhFV-33">
          <mxGeometry y="60" width="220" height="30" as="geometry" />
        </mxCell>
        <mxCell id="w_xfcyIcDATjpzYOrhFV-36" value="get_docs_or_response_by_params" style="text;strokeColor=none;fillColor=none;align=left;verticalAlign=middle;spacingLeft=4;spacingRight=4;overflow=hidden;points=[[0,0.5],[1,0.5]];portConstraint=eastwest;rotatable=0;whiteSpace=wrap;html=1;" vertex="1" parent="w_xfcyIcDATjpzYOrhFV-33">
          <mxGeometry y="90" width="220" height="30" as="geometry" />
        </mxCell>
        <mxCell id="w_xfcyIcDATjpzYOrhFV-62" value="&lt;font color=&quot;#ff0000&quot;&gt;create_org_token_header&lt;/font&gt;" style="text;strokeColor=none;fillColor=none;align=left;verticalAlign=middle;spacingLeft=4;spacingRight=4;overflow=hidden;points=[[0,0.5],[1,0.5]];portConstraint=eastwest;rotatable=0;whiteSpace=wrap;html=1;" vertex="1" parent="w_xfcyIcDATjpzYOrhFV-33">
          <mxGeometry y="120" width="220" height="30" as="geometry" />
        </mxCell>
        <mxCell id="w_xfcyIcDATjpzYOrhFV-41" value="api" style="swimlane;fontStyle=0;childLayout=stackLayout;horizontal=1;startSize=30;horizontalStack=0;resizeParent=1;resizeParentMax=0;resizeLast=0;collapsible=1;marginBottom=0;whiteSpace=wrap;html=1;" vertex="1" parent="1">
          <mxGeometry x="580" y="330" width="180" height="90" as="geometry" />
        </mxCell>
        <mxCell id="w_xfcyIcDATjpzYOrhFV-42" value="get_token_for_dict" style="text;strokeColor=none;fillColor=none;align=left;verticalAlign=middle;spacingLeft=4;spacingRight=4;overflow=hidden;points=[[0,0.5],[1,0.5]];portConstraint=eastwest;rotatable=0;whiteSpace=wrap;html=1;" vertex="1" parent="w_xfcyIcDATjpzYOrhFV-41">
          <mxGeometry y="30" width="180" height="30" as="geometry" />
        </mxCell>
        <mxCell id="w_xfcyIcDATjpzYOrhFV-43" value="get_access_attributes_for_docs" style="text;strokeColor=none;fillColor=none;align=left;verticalAlign=middle;spacingLeft=4;spacingRight=4;overflow=hidden;points=[[0,0.5],[1,0.5]];portConstraint=eastwest;rotatable=0;whiteSpace=wrap;html=1;" vertex="1" parent="w_xfcyIcDATjpzYOrhFV-41">
          <mxGeometry y="60" width="180" height="30" as="geometry" />
        </mxCell>
        <mxCell id="w_xfcyIcDATjpzYOrhFV-51" value="oos_sync_notification_numbers" style="swimlane;fontStyle=0;childLayout=stackLayout;horizontal=1;startSize=30;horizontalStack=0;resizeParent=1;resizeParentMax=0;resizeLast=0;collapsible=1;marginBottom=0;whiteSpace=wrap;html=1;" vertex="1" parent="1">
          <mxGeometry x="10" y="530" width="180" height="60" as="geometry" />
        </mxCell>
        <mxCell id="w_xfcyIcDATjpzYOrhFV-52" value="upload_from_eis()" style="text;strokeColor=none;fillColor=none;align=left;verticalAlign=middle;spacingLeft=4;spacingRight=4;overflow=hidden;points=[[0,0.5],[1,0.5]];portConstraint=eastwest;rotatable=0;whiteSpace=wrap;html=1;" vertex="1" parent="w_xfcyIcDATjpzYOrhFV-51">
          <mxGeometry y="30" width="180" height="30" as="geometry" />
        </mxCell>
      </root>
    </mxGraphModel>
  </diagram>
</mxfile>
